<?xml version="1.0" encoding="iso-8859-1"?>
<!-- Generator: Adobe Illustrator 18.0.0, SVG Export Plug-In . SVG Version: 6.00 Build 0)  -->
<!DOCTYPE svg PUBLIC "-//W3C//DTD SVG 1.1//EN" "http://www.w3.org/Graphics/SVG/1.1/DTD/svg11.dtd">
<svg version="1.1" id="Capa_1" xmlns="http://www.w3.org/2000/svg" xmlns:xlink="http://www.w3.org/1999/xlink" x="0px" y="0px"
	 viewBox="0 0 184.921 184.921" style="enable-background:new 0 0 184.921 184.921;" xml:space="preserve">
<g>
	<g>
		<rect x="0" y="4.282" style="fill:#31C176;" width="184.921" height="176.358"/>
	</g>
	<g>
		<g>
			<g>
				<path style="fill:#FFFFFF;" d="M106.714,99.644V50.615c0-8.06-6.414-14.654-14.253-14.654c-7.84,0-14.254,6.595-14.254,14.654
					v49.029c-7.133,4.791-11.85,13.066-11.85,22.479c0,14.822,11.687,26.838,26.104,26.838c14.416,0,26.103-12.016,26.103-26.838
					C118.563,112.711,113.847,104.435,106.714,99.644z"/>
				<path style="fill:#F15A24;" d="M102.092,104.194v-9.423c0-5.446-4.334-9.902-9.631-9.902c-5.298,0-9.632,4.456-9.632,9.902
					v9.423c-6.134,3.491-10.289,10.21-10.289,17.929c0,11.312,8.919,20.481,19.921,20.481c11.001,0,19.92-9.17,19.92-20.481
					C112.381,114.404,108.226,107.685,102.092,104.194z"/>
			</g>
			<g>
				<path style="fill:#E6E6E6;" d="M106.714,99.644V50.615c0-8.06-6.414-14.654-14.253-14.654v48.908
					c5.297,0,9.631,4.456,9.631,9.902v9.423c6.135,3.491,10.289,10.21,10.289,17.929c0,11.312-8.919,20.481-19.92,20.481v6.356
					c14.416,0,26.103-12.016,26.103-26.838C118.563,112.711,113.847,104.435,106.714,99.644z"/>
				<path style="fill:#ED1C24;" d="M112.381,122.123c0-7.719-4.154-14.438-10.289-17.929v-9.423c0-5.446-4.334-9.902-9.631-9.902
					v57.735C103.462,142.604,112.381,133.434,112.381,122.123z"/>
			</g>
		</g>
	</g>
</g>
<g>
</g>
<g>
</g>
<g>
</g>
<g>
</g>
<g>
</g>
<g>
</g>
<g>
</g>
<g>
</g>
<g>
</g>
<g>
</g>
<g>
</g>
<g>
</g>
<g>
</g>
<g>
</g>
<g>
</g>
</svg>
